<svg xmlns="http://www.w3.org/2000/svg" version="1.1" xmlns:xlink="http://www.w3.org/1999/xlink" width="1000" height="1000"><style>
    #light-icon {
      display: inline;
    }
    #dark-icon {
      display: none;
    }

    @media (prefers-color-scheme: dark) {
      #light-icon {
        display: none;
      }
      #dark-icon {
        display: inline;
      }
    }
  </style><g id="light-icon"><svg xmlns="http://www.w3.org/2000/svg" version="1.1" xmlns:xlink="http://www.w3.org/1999/xlink" width="1000" height="1000"><g><g transform="matrix(0.7407407407407407,0,0,0.7407407407407407,0,0)"><svg xmlns="http://www.w3.org/2000/svg" version="1.1" xmlns:xlink="http://www.w3.org/1999/xlink" width="1350" height="1350"><svg id="Layer_1" data-name="Layer 1" xmlns="http://www.w3.org/2000/svg" viewBox="0 0 1350 1350">
  <path d="M0,672.31c54.6-52.96,108.07-105.34,162.14-157.11,60.16-57.6,126.56-107.04,197.89-150.06,76.1-45.9,157.27-78.88,245.12-92.37,87.8-13.49,173.58-.19,256.36,30.49,94.46,35.01,179.13,87.63,255.02,153.19,58.38,50.44,113.25,104.93,169.64,157.68,20.7,19.36,41.26,38.88,63.83,60.17-31.52,32.57-61.76,64.22-92.43,95.44-76.58,77.94-159.04,148.83-252.35,206.24-75.45,46.42-155.53,82.32-243.02,99.01-100.97,19.26-198.19,3.41-292.43-35.05-92.17-37.62-176.1-89.29-250.67-154.82-61.69-54.21-120.4-111.83-179.92-168.48-13.35-12.71-24.57-27.66-39.18-44.33Zm1211.69,4.8c-52.78-47.56-101.28-93.42-152.1-136.56-73.75-62.59-154.12-114.86-246.47-146.57-72.02-24.73-144.62-32.71-220.05-14.56-79.07,19.03-150.8,53.83-217.55,98.25-49.91,33.22-96.87,71.18-143.2,109.38-32.7,26.96-62.16,57.86-95.76,89.54,48.51,43.42,91.87,83.75,136.88,122.17,71.15,60.72,149.23,110.67,235.67,147.27,68.99,29.21,140.33,43.15,214.85,32.34,65.75-9.54,127.03-33.4,185.36-64.89,61.2-33.04,118.84-71.11,170.38-118.19,42.35-38.68,85.44-76.56,131.99-118.18Z"></path>
  <path d="M890.37,675.77c-.06,120.69-102.24,213.44-217.45,213.36-110.02-.08-217.67-92.44-213.92-218.26,3.55-118.86,101.51-207.9,215.64-207.71,117.15,.2,215.74,91.51,215.73,212.61Zm-215.25,113.38c68.15-3.74,113.37-47.87,113.58-112.38,.22-64.87-42.55-112.74-114.23-113.38-61.04-.54-112.58,39.83-113.24,112.19-.62,68.32,48.43,110.29,113.88,113.57Z"></path>
</svg></svg></g></g></svg></g><g id="dark-icon"><svg xmlns="http://www.w3.org/2000/svg" version="1.1" xmlns:xlink="http://www.w3.org/1999/xlink" width="1000" height="1000"><g><g transform="matrix(0.7407407407407407,0,0,0.7407407407407407,0,0)"><svg xmlns="http://www.w3.org/2000/svg" version="1.1" xmlns:xlink="http://www.w3.org/1999/xlink" width="1350" height="1350"><svg id="Layer_1" data-name="Layer 1" xmlns="http://www.w3.org/2000/svg" viewBox="0 0 1350 1350">
  <defs>
    <style>
      .cls-1 {
        fill: #fff;
      }
    </style>
  </defs>
  <path class="cls-1" d="M0,672.31c54.6-52.96,108.07-105.34,162.14-157.11,60.16-57.6,126.56-107.04,197.89-150.06,76.1-45.9,157.27-78.88,245.12-92.37,87.8-13.49,173.58-.19,256.36,30.49,94.46,35.01,179.13,87.63,255.02,153.19,58.38,50.44,113.25,104.93,169.64,157.68,20.7,19.36,41.26,38.88,63.83,60.17-31.52,32.57-61.76,64.22-92.43,95.44-76.58,77.94-159.04,148.83-252.35,206.24-75.45,46.42-155.53,82.32-243.02,99.01-100.97,19.26-198.19,3.41-292.43-35.05-92.17-37.62-176.1-89.29-250.67-154.82-61.69-54.21-120.4-111.83-179.92-168.48-13.35-12.71-24.57-27.66-39.18-44.33Zm1211.69,4.8c-52.78-47.56-101.28-93.42-152.1-136.56-73.75-62.59-154.12-114.86-246.47-146.57-72.02-24.73-144.62-32.71-220.05-14.56-79.07,19.03-150.8,53.83-217.55,98.25-49.91,33.22-96.87,71.18-143.2,109.38-32.7,26.96-62.16,57.86-95.76,89.54,48.51,43.42,91.87,83.75,136.88,122.17,71.15,60.72,149.23,110.67,235.67,147.27,68.99,29.21,140.33,43.15,214.85,32.34,65.75-9.54,127.03-33.4,185.36-64.89,61.2-33.04,118.84-71.11,170.38-118.19,42.35-38.68,85.44-76.56,131.99-118.18Z"></path>
  <path class="cls-1" d="M890.37,675.77c-.06,120.69-102.24,213.44-217.45,213.36-110.02-.08-217.67-92.44-213.92-218.26,3.55-118.86,101.51-207.9,215.64-207.71,117.15,.2,215.74,91.51,215.73,212.61Zm-215.25,113.38c68.15-3.74,113.37-47.87,113.58-112.38,.22-64.87-42.55-112.74-114.23-113.38-61.04-.54-112.58,39.83-113.24,112.19-.62,68.32,48.43,110.29,113.88,113.57Z"></path>
</svg></svg></g></g></svg></g></svg>